# xmcd
#
# Track frame offsets:
#	150
#	13224
#	30119
#	47441
#	58603
#	71348
#	86434
#	103666
#	119616
#	141113
#	160198
#	176356
#	192210
#	207312
#	224853
#	238589
#	254849
#	274859
#	294440
#	312771
#
# Disc length: 4379 seconds
#
# Revision: 1
# Processed by: cddbd v1.5.1PL2 Copyright (c) Steve Scherf et al.
# Submitted via: audiograbber 1.83.01
#
DISCID=25111914
DTITLE=Oscar - Pop Latino Vol Ii
DYEAR=1900
DGENRE=
TTITLE0=Que Vida La Mia
TTITLE1=La Cadena De Oro
TTITLE2=Salvame
TTITLE3=El King
TTITLE4=El Pide De Mi Barrio
TTITLE5=De Rodilas
TTITLE6=Temando Flores
TTITLE7=Lo Que Me Gusta De Ti
TTITLE8=Un Poco De Tu Amor
TTITLE9=Colores, Colores
TTITLE10=Amor Sin Ser Amada
TTITLE11=Dias De Verano
TTITLE12=La Pered
TTITLE13=Tu Taliban
TTITLE14=Avientame
TTITLE15=Enseñame
TTITLE16=Como Seria
TTITLE17=Sentimiento
TTITLE18=Te Necesito
TTITLE19=Te Juro Que No
EXTD=
EXTT0=
EXTT1=
EXTT2=
EXTT3=
EXTT4=
EXTT5=
EXTT6=
EXTT7=
EXTT8=
EXTT9=
EXTT10=
EXTT11=
EXTT12=
EXTT13=
EXTT14=
EXTT15=
EXTT16=
EXTT17=
EXTT18=
EXTT19=
PLAYORDER=
